<svg xmlns="http://www.w3.org/2000/svg" width="205" height="65" viewBox="0 0 205 65" fill="none">
    <path d="M108.372 16.1602C108.372 18.4665 106.526 20.3243 104.235 20.3243C101.943 20.3243 100.097 18.4665 100.097 16.1602C100.097 13.8539 101.88 11.996 104.235 11.996C106.59 12.0601 108.372 13.9179 108.372 16.1602ZM91.3139 24.5526C91.3139 24.9369 91.3139 25.5776 91.3139 25.5776C91.3139 25.5776 89.3411 23.015 85.1401 23.015C78.2027 23.015 72.7923 28.3323 72.7923 35.6997C72.7923 43.003 78.1387 48.3845 85.1401 48.3845C89.4046 48.3845 91.3139 45.7579 91.3139 45.7579V46.8467C91.3139 47.3592 91.6959 47.7436 92.205 47.7436H97.3606V23.6556C97.3606 23.6556 92.6505 23.6556 92.205 23.6556C91.6959 23.6556 91.3139 24.1041 91.3139 24.5526ZM91.3139 39.992C90.3593 41.4014 88.45 42.6186 86.1588 42.6186C82.0849 42.6186 78.9662 40.056 78.9662 35.6997C78.9662 31.3433 82.0849 28.7808 86.1588 28.7808C88.3864 28.7808 90.4229 30.0621 91.3139 31.4074V39.992ZM101.18 23.6556H107.29V47.7436H101.18V23.6556ZM192.451 23.015C188.25 23.015 186.277 25.5776 186.277 25.5776V12.0601H180.167V47.7436C180.167 47.7436 184.877 47.7436 185.322 47.7436C185.831 47.7436 186.213 47.2952 186.213 46.8467V45.7579C186.213 45.7579 188.187 48.3845 192.387 48.3845C199.325 48.3845 204.735 43.003 204.735 35.6997C204.735 28.3964 199.325 23.015 192.451 23.015ZM191.432 42.5546C189.078 42.5546 187.232 41.3373 186.277 39.9279V31.3433C187.232 30.0621 189.268 28.7167 191.432 28.7167C195.506 28.7167 198.625 31.2793 198.625 35.6356C198.625 39.992 195.506 42.5546 191.432 42.5546ZM176.984 33.4575V47.8076H170.874V34.1622C170.874 30.1902 169.601 28.5886 166.164 28.5886C164.319 28.5886 162.409 29.5495 161.2 30.959V47.7436H155.09V23.6556H159.927C160.436 23.6556 160.818 24.1041 160.818 24.5526V25.5776C162.6 23.7197 164.955 23.015 167.31 23.015C169.983 23.015 172.211 23.7838 173.993 25.3213C176.157 27.1151 176.984 29.4214 176.984 33.4575ZM140.259 23.015C136.059 23.015 134.085 25.5776 134.085 25.5776V12.0601H127.975V47.7436C127.975 47.7436 132.685 47.7436 133.131 47.7436C133.64 47.7436 134.022 47.2952 134.022 46.8467V45.7579C134.022 45.7579 135.995 48.3845 140.196 48.3845C147.134 48.3845 152.544 43.003 152.544 35.6997C152.607 28.3964 147.197 23.015 140.259 23.015ZM139.241 42.5546C136.886 42.5546 135.04 41.3373 134.085 39.9279V31.3433C135.04 30.0621 137.077 28.7167 139.241 28.7167C143.315 28.7167 146.433 31.2793 146.433 35.6356C146.433 39.992 143.315 42.5546 139.241 42.5546ZM122.692 23.015C124.539 23.015 125.493 23.3353 125.493 23.3353V29.0371C125.493 29.0371 120.401 27.3073 117.219 30.959V47.8076H111.109V23.6556C111.109 23.6556 115.819 23.6556 116.264 23.6556C116.773 23.6556 117.155 24.1041 117.155 24.5526V25.5776C118.301 24.2322 120.783 23.015 122.692 23.015ZM59.2356 45.5654C58.9172 44.797 58.5989 43.9639 58.281 43.2593C57.7714 42.1061 57.2623 41.017 56.8167 39.992L56.7532 39.9279C52.3614 30.3183 47.6513 20.5806 42.687 10.971L42.496 10.5866C41.9868 9.62563 41.4777 8.60061 40.9685 7.57559C40.332 6.42243 39.6955 5.20519 38.6771 4.05205C36.6404 1.48949 33.7126 0.0800781 30.5938 0.0800781C27.4114 0.0800781 24.5473 1.48949 22.4469 3.92392C21.4922 5.07706 20.792 6.2943 20.1556 7.44746C19.6464 8.47248 19.1372 9.4975 18.628 10.4585L18.4371 10.8428C13.5362 20.4524 8.76256 30.1902 4.37084 39.7998L4.30719 39.9279C3.86165 40.953 3.35247 42.042 2.84329 43.1952C2.52504 43.8999 2.2068 44.6685 1.88856 45.5014C1.06114 47.8721 0.806548 50.1143 1.12479 52.4205C1.82492 57.2254 5.00732 61.2614 9.39902 63.0552C11.0539 63.7596 12.7724 64.0801 14.5545 64.0801C15.0637 64.0801 15.7002 64.0161 16.2094 63.9521C18.3098 63.6956 20.4738 62.9912 22.5742 61.7739C25.1838 60.3001 27.666 58.1863 30.4665 55.1112C33.2671 58.1863 35.813 60.3001 38.3589 61.7739C40.4593 62.9912 42.6233 63.6956 44.7237 63.9521C45.2329 64.0161 45.8692 64.0801 46.3787 64.0801C48.1609 64.0801 49.943 63.7596 51.5339 63.0552C55.9893 61.2614 59.108 57.161 59.8083 52.4205C60.3174 50.1783 60.0631 47.9361 59.2356 45.5654ZM30.5302 48.897C27.0932 44.5405 24.8655 40.4404 24.1017 36.981C23.7835 35.5075 23.7199 34.2262 23.9108 33.0731C24.0381 32.048 24.42 31.1511 24.9292 30.3824C26.1385 28.6527 28.1752 27.5635 30.5302 27.5635C32.8852 27.5635 34.9856 28.5886 36.1312 30.3824C36.6404 31.1511 37.0223 32.048 37.1496 33.0731C37.3405 34.2262 37.2769 35.5716 36.9586 36.981C36.1949 40.3764 33.9672 44.4765 30.5302 48.897ZM55.9257 51.9081C55.4802 55.2392 53.2525 58.1223 50.1338 59.4032C48.6064 60.0441 46.9514 60.2361 45.2965 60.0441C43.7053 59.8516 42.1141 59.3392 40.4593 58.3783C38.168 57.097 35.8766 55.1112 33.2034 52.1641C37.4042 46.9752 39.9501 42.2342 40.9048 38.006C41.3504 36.02 41.414 34.2262 41.2231 32.5606C40.9685 30.959 40.3956 29.4855 39.5046 28.2042C37.5315 25.3213 34.2218 23.6556 30.5302 23.6556C26.8386 23.6556 23.5289 25.3854 21.5558 28.2042C20.6647 29.4855 20.0919 30.959 19.8373 32.5606C19.5827 34.2262 19.6464 36.0841 20.1556 38.006C21.1103 42.2342 23.7199 47.0392 27.857 52.2281C25.2474 55.1752 22.8924 57.161 20.6011 58.4423C18.9462 59.4032 17.355 59.9161 15.7638 60.1081C14.0454 60.3001 12.3905 60.0441 10.9266 59.4676C7.80782 58.1863 5.58016 55.3032 5.13461 51.9721C4.94367 50.3703 5.07097 48.769 5.70746 46.9752C5.89839 46.3343 6.21662 45.6939 6.53485 44.925C6.98043 43.8999 7.48959 42.8108 7.9988 41.7217L8.06242 41.5936C12.4542 32.048 17.1641 22.3103 22.065 12.8288L22.256 12.4444C22.7651 11.4835 23.2743 10.4585 23.7835 9.4975C24.2927 8.47248 24.8655 7.5115 25.5656 6.67866C26.9023 5.14114 28.6844 4.3083 30.6575 4.3083C32.6306 4.3083 34.4127 5.14114 35.7493 6.67866C36.4495 7.5115 37.0223 8.47248 37.5315 9.4975C38.0407 10.4585 38.5499 11.4835 39.059 12.4444L39.25 12.8288C44.0872 22.3744 48.7972 32.1121 53.1889 41.6577V41.7217C53.698 42.7467 54.1436 43.8999 54.6527 44.925C54.971 45.6939 55.2894 46.3343 55.4802 46.9752C55.9893 48.6405 56.1805 50.2423 55.9257 51.9081Z" fill="#8B8B8B"/>
</svg>