<svg xmlns="http://www.w3.org/2000/svg" width="243" height="65" viewBox="0 0 243 65" fill="none">
    <path d="M87.477 51.4422C88.4628 51.4422 88.7367 50.9529 89.1202 49.756L92.2425 40.6167H106.265L109.442 49.756C109.825 50.9529 110.209 51.4422 111.195 51.4422L111.739 51.4418C113.038 51.4386 115 51.4133 115.522 51.2249C115.96 51.0071 116.179 50.6262 116.179 50.1911C116.179 49.6471 116.015 49.1031 115.796 48.5049L104.786 16.5719C103.855 13.8519 103.307 12.6551 100.349 12.6551H98.9798C95.7479 12.6551 94.9813 13.9607 94.05 16.6807L82.821 48.6133C82.6017 49.1573 82.4375 49.756 82.4375 50.2453C82.4375 50.6262 82.5471 51.0613 83.0949 51.2249C83.6972 51.388 86.5457 51.4422 87.477 51.4422ZM104.786 35.2311H93.8308C97.2269 25.0039 98.3771 21.6311 99.3634 18.2039C100.404 21.6311 101.39 24.8951 104.786 35.2311ZM129.38 51.5511C130.366 51.5511 130.804 51.2791 130.969 50.5173C131.078 50.028 131.188 48.8853 131.188 48.0693C131.188 47.3622 130.859 46.9271 130.147 46.8182C128.559 46.5462 127.463 46.0569 127.025 45.2951C126.642 44.588 126.477 43.6631 126.477 42.0311V12.0023C126.477 11.0775 126.258 10.5879 125.272 10.5879H121.712C120.726 10.5879 120.397 11.1319 120.397 12.0023V42.7927C120.397 45.5129 120.726 47.308 121.438 48.4502C122.643 50.3542 124.724 51.5511 129.38 51.5511ZM140.554 64.0089C141.541 64.0089 142.088 63.6822 142.088 62.5942V51.116C143.293 51.7142 145.649 51.9862 147.347 51.9862C156.33 51.9862 160.657 49.1573 160.657 37.1351C160.657 26.4727 157.152 23.3719 149.154 23.3719C145.156 23.3719 140.28 24.2423 138.089 25.2215C137.268 25.6023 136.556 26.0919 136.282 26.7991C136.063 27.3431 136.008 28.2135 136.008 28.9751V62.5942C136.008 63.7369 136.392 64.0089 137.268 64.0089H140.554ZM146.854 46.764C145.43 46.764 143.732 46.5462 142.91 46.1653C142.307 45.948 142.088 45.5671 142.088 44.4247V31.6407C142.088 31.0423 142.088 30.5527 142.253 30.2263C142.362 29.8999 142.691 29.6279 143.129 29.4103C144.498 28.8119 146.689 28.4855 148.497 28.4855C153.372 28.4855 154.522 31.0423 154.522 37.1895C154.522 44.6422 153.044 46.764 146.854 46.764ZM175.72 51.9862C179.5 51.9862 184.211 51.2791 186.347 50.4089C187.223 50.0822 187.716 49.6471 188.1 49.1573C188.593 48.5591 188.702 47.6889 188.702 46.7093V32.6199C188.702 28.9207 188.264 26.7991 186.84 25.4391C185.306 23.9159 182.841 23.3175 178.131 23.3175C175.282 23.3175 171.722 23.7527 168.928 24.5687C168.271 24.7863 167.833 25.1671 167.833 25.9831C167.833 26.4727 168.052 27.8327 168.271 28.6487C168.435 29.1927 168.764 29.5191 169.312 29.5191C169.695 29.5191 170.791 29.3015 171.503 29.1927C173.42 28.8119 175.502 28.5943 177.254 28.5943C180.87 28.5943 181.91 29.3015 182.349 30.4439C182.622 31.1511 182.677 32.3479 182.677 33.3815V35.1767C181.253 35.0135 179.062 34.9591 177.364 34.9591C173.749 34.9591 170.462 35.5031 168.709 36.5911C166.573 37.9511 165.642 39.9639 165.642 43.2279C165.642 47.9062 167.34 51.9862 175.72 51.9862ZM176.487 47.2533C172.379 47.2533 171.448 45.5671 171.448 43.0647C171.448 41.5415 171.832 40.7255 172.653 40.2359C173.639 39.5831 175.337 39.3111 178.076 39.3111C179.61 39.3111 181.527 39.4199 182.677 39.5287V43.7719C182.677 44.4791 182.622 45.132 182.458 45.6213C182.349 46.0022 182.02 46.3289 181.527 46.5462C180.541 46.9271 178.843 47.2533 176.487 47.2533ZM207.326 51.9862C209.955 51.9862 212.858 51.7142 215.269 50.844C215.926 50.6262 216.2 50.2453 216.2 49.5382C216.2 48.9942 215.871 47.6889 215.652 46.8729C215.488 46.3831 215.159 46.1111 214.721 46.1111C214.283 46.1111 213.571 46.2742 213.132 46.3831C211.544 46.7093 210.065 46.8729 207.983 46.8729C202.67 46.8729 201.355 43.7719 201.355 37.6247C201.355 32.0759 202.342 28.5399 208.422 28.5399C210.119 28.5399 211.489 28.7031 212.584 28.9207C213.078 28.9751 213.79 29.1383 214.228 29.1383C214.721 29.1383 215.049 28.8663 215.214 28.3223C215.433 27.5063 215.762 25.7655 215.762 25.2215C215.762 24.6775 215.488 24.2423 214.83 24.0247C213.132 23.5351 210.777 23.3175 208.367 23.3175C198.672 23.3175 195.221 27.9959 195.221 38.1143C195.221 48.7222 199.603 51.9862 207.326 51.9862ZM229.62 51.9862C233.399 51.9862 238.11 51.2791 240.246 50.4089C241.123 50.0822 241.615 49.6471 241.999 49.1573C242.492 48.5591 242.602 47.6889 242.602 46.7093V32.6199C242.602 28.9207 242.163 26.7991 240.739 25.4391C239.206 23.9159 236.741 23.3175 232.03 23.3175C229.182 23.3175 225.621 23.7527 222.827 24.5687C222.17 24.7863 221.732 25.1671 221.732 25.9831C221.732 26.4727 221.951 27.8327 222.17 28.6487C222.335 29.1927 222.663 29.5191 223.211 29.5191C223.595 29.5191 224.69 29.3015 225.402 29.1927C227.319 28.8119 229.401 28.5943 231.153 28.5943C234.769 28.5943 235.809 29.3015 236.248 30.4439C236.521 31.1511 236.576 32.3479 236.576 33.3815V35.1767C235.152 35.0135 232.961 34.9591 231.263 34.9591C227.648 34.9591 224.361 35.5031 222.609 36.5911C220.472 37.9511 219.541 39.9639 219.541 43.2279C219.541 47.9062 221.239 51.9862 229.62 51.9862ZM230.386 47.2533C226.278 47.2533 225.347 45.5671 225.347 43.0647C225.347 41.5415 225.731 40.7255 226.552 40.2359C227.538 39.5831 229.236 39.3111 231.975 39.3111C233.509 39.3111 235.426 39.4199 236.576 39.5287V43.7719C236.576 44.4791 236.521 45.132 236.357 45.6213C236.248 46.0022 235.919 46.3289 235.426 46.5462C234.44 46.9271 232.742 47.2533 230.386 47.2533Z" fill="#8B8B8B"/>
    <path d="M32.221 64.0801C50.0164 64.0801 64.442 49.7534 64.442 32.0801C64.442 14.407 50.0164 0.0800781 32.221 0.0800781C14.4258 0.0800781 0 14.407 0 32.0801C0 49.7534 14.4258 64.0801 32.221 64.0801Z" fill="white"/>
    <path fill-rule="evenodd" clip-rule="evenodd" d="M25.5202 63.3872L25.5117 31.0128C17.4528 31.6836 17.6995 24.1555 17.6995 24.1555C19.6727 22.6245 21.3382 20.8132 22.6961 18.7216C24.6104 15.7728 29.7878 14.7899 29.7878 14.7899L28.5546 11.0244C31.1873 10.4382 32.9886 14.7899 32.9886 14.7899V9.77021C34.44 10.2499 35.3722 10.7967 35.7854 11.4106C35.9359 11.6344 36.0704 11.8717 36.1904 12.1163C37.0941 13.9573 37.1815 16.2103 37.1815 16.2103C39.4402 17.6759 41.9343 20.0378 42.5357 24.9081C42.5357 27.4972 43.2318 53.0499 43.4798 62.0721C55.7226 57.5374 64.442 45.8201 64.442 32.0801C64.442 14.407 50.0164 0.0800781 32.221 0.0800781C14.4258 0.0800781 0 14.407 0 32.0801C0 47.4712 10.941 60.3245 25.5202 63.3872Z" fill="#8B8B8B"/>
    <path d="M33.0173 14.9546C33.9071 14.9546 34.6284 13.7943 34.6284 12.363C34.6284 10.9318 33.9071 9.77148 33.0173 9.77148C32.1276 9.77148 31.4062 10.9318 31.4062 12.363C31.4062 13.7943 32.1276 14.9546 33.0173 14.9546Z" fill="#8B8B8B"/>
    <path fill-rule="evenodd" clip-rule="evenodd" d="M17.7925 24.4584C17.9179 24.4584 18.1527 24.5273 18.1527 24.191C18.1527 23.8547 18.1726 23.8777 18.0514 23.873C17.7821 24.0692 17.6989 24.0433 17.6989 24.191C17.6989 24.3387 17.6672 24.4584 17.7925 24.4584Z" fill="#8B8B8B"/>
    <path fill-rule="evenodd" clip-rule="evenodd" d="M28.5331 11.003C28.2369 11.1043 28.2945 12.045 28.6617 13.1041C29.0288 14.1632 29.5667 14.9396 29.8629 14.8384C30.1591 14.7371 30.1016 13.7964 29.7344 12.7372C29.3672 11.6782 28.8294 10.9017 28.5331 11.003Z" fill="#8B8B8B"/>
    <path d="M25.6406 22.6936H27.5943C28.536 22.6936 28.806 21.4902 28.806 21.4902H26.7185C25.7745 21.4902 25.6406 22.6936 25.6406 22.6936Z" fill="#8B8B8B"/>
</svg>