<svg xmlns="http://www.w3.org/2000/svg" width="251" height="65" viewBox="0 0 251 65" fill="none">
    <path d="M31.6901 64.0801C14.3046 64.0801 0 49.8579 0 32.0801C0 14.5245 14.0845 0.0800781 31.6901 0.0800781C49.2958 0.0800781 63.3803 14.3023 63.3803 32.0801C63.3803 49.6356 49.2958 64.0801 31.6901 64.0801ZM31.6901 5.63563C17.1655 5.63563 5.50176 17.6356 5.50176 32.0801C5.50176 46.7467 17.3856 58.5245 31.6901 58.5245C45.9947 58.5245 57.8785 46.5245 57.8785 32.0801C58.0986 17.4134 46.2148 5.63563 31.6901 5.63563Z" fill="#8B8B8B"/>
    <path d="M31.6901 64.0801C14.3046 64.0801 0 49.8579 0 32.0801C0 14.5245 14.0845 0.0800781 31.6901 0.0800781C49.2958 0.0800781 63.3803 14.3023 63.3803 32.0801C63.3803 49.6356 49.2958 64.0801 31.6901 64.0801ZM31.6901 5.63563C17.1655 5.63563 5.50176 17.6356 5.50176 32.0801C5.50176 46.7467 17.3856 58.5245 31.6901 58.5245C45.9947 58.5245 57.8785 46.5245 57.8785 32.0801C58.0986 17.4134 46.2148 5.63563 31.6901 5.63563Z" fill="#8B8B8B"/>
    <path d="M31.6894 47.191C23.5468 47.191 16.7246 40.5243 16.7246 32.0799C16.7246 23.8576 23.3267 16.9688 31.6894 16.9688C40.0521 16.9688 46.654 23.6354 46.654 32.0799C46.654 40.3021 40.0521 47.191 31.6894 47.191ZM31.6894 22.5243C26.4077 22.5243 22.2264 26.7465 22.2264 32.0799C22.2264 37.4132 26.4077 41.6354 31.6894 41.6354C36.9711 41.6354 41.1524 37.4132 41.1524 32.0799C41.3725 26.7465 36.9711 22.5243 31.6894 22.5243Z" fill="#8B8B8B"/>
    <path d="M22.0045 27.4132C21.3443 27.4132 20.6841 27.191 20.244 26.7466C19.1436 25.6355 19.1436 24.0799 20.0239 22.9688L37.8496 3.41324C38.95 2.30212 40.4905 2.30212 41.5908 3.19101C42.6912 4.30212 42.6912 5.85769 41.8109 6.9688L23.9852 26.5244C23.325 27.191 22.6648 27.4132 22.0045 27.4132Z" fill="#8B8B8B"/>
    <path d="M23.985 61.6356C23.3248 61.6356 22.6646 61.4134 22.2245 60.9689C21.1241 59.8578 21.1241 58.3023 22.0044 57.1911L38.9498 38.5246C40.0502 37.4135 41.5907 37.4135 42.691 38.3023C43.7914 39.4135 43.7914 40.969 42.9111 42.0801L25.9657 60.7467C25.5256 61.4134 24.6452 61.6356 23.985 61.6356Z" fill="#8B8B8B"/>
    <path d="M73.0645 14.9688H78.5662V26.0799C79.6666 24.5243 82.3074 23.4132 84.068 23.4132C90.0099 23.4132 93.3109 29.191 93.3109 34.7465C93.3109 41.8576 90.2299 47.4133 84.068 47.4133C81.6472 47.4133 79.8866 46.3022 77.906 44.5243L77.2458 46.9688H73.0645V14.9688ZM78.5662 40.9687C79.6666 41.8576 80.5468 42.9687 82.7476 42.9687C86.0486 42.9687 87.8092 40.3021 87.8092 35.4131C87.8092 30.5243 86.0486 27.8576 82.7476 27.8576C80.987 27.8576 79.6666 28.7465 78.5662 29.8576V40.9687Z" fill="#8B8B8B"/>
    <path d="M98.1487 19.6363V14.5251H103.65V19.6363H98.1487ZM103.65 46.9696H98.1487V23.8585H103.65V46.9696Z" fill="#8B8B8B"/>
    <path d="M110.696 23.858V16.3025H116.197V23.858H120.599V28.3025H116.197V41.4136C116.197 42.7469 116.858 42.9692 118.178 42.9692C119.058 42.9692 119.939 42.7469 120.599 42.5247V46.9691C119.058 47.1913 117.738 47.4135 116.197 47.4135C112.236 47.4135 110.476 45.4135 110.476 42.0803V28.3025H107.395V23.858H110.696Z" fill="#8B8B8B"/>
    <path d="M138.426 46.9682L137.985 44.9682C135.785 46.5237 133.804 47.4126 130.943 47.4126C126.762 47.4126 124.781 44.5237 124.781 41.1904C124.781 35.857 128.963 33.1904 137.985 32.0793V30.0793C137.985 28.3015 136.665 27.4126 134.684 27.4126C132.044 27.4126 130.723 28.7459 129.623 30.3015L126.102 27.6348C127.422 25.1904 131.383 23.4126 134.684 23.4126C140.846 23.6348 143.487 25.857 143.487 32.7459V43.6348C143.487 44.7459 143.487 45.857 143.927 46.9682H138.426ZM137.985 36.0793C134.244 36.7459 130.283 37.6348 130.283 40.7459C130.283 42.5237 131.383 43.4126 132.924 43.4126C134.684 43.4126 136.885 41.857 137.985 40.9682V36.0793Z" fill="#8B8B8B"/>
    <path d="M161.533 31.4126C160.653 29.4126 159.773 27.857 157.132 27.857C154.051 27.857 152.73 30.3015 152.73 35.4126C152.73 40.5237 154.271 42.9682 157.352 42.9682C159.773 42.9682 161.093 41.4126 162.193 39.1904L166.375 41.6348C164.174 45.857 161.313 47.4126 157.132 47.4126C150.97 47.4126 147.229 42.7459 147.229 35.4126C147.229 28.0793 150.97 23.4126 157.132 23.4126C161.533 23.4126 164.834 25.6348 166.155 29.6348L161.533 31.4126Z" fill="#8B8B8B"/>
    <path d="M183.537 31.4126C182.657 29.4126 181.776 27.857 179.136 27.857C176.055 27.857 174.734 30.3015 174.734 35.4126C174.734 40.5237 176.275 42.9682 179.356 42.9682C181.776 42.9682 183.097 41.4126 184.197 39.1904L188.379 41.6348C186.178 45.857 183.317 47.4126 179.136 47.4126C172.974 47.4126 169.232 42.7459 169.232 35.4126C169.232 28.0793 172.974 23.4126 179.136 23.4126C183.537 23.4126 186.838 25.6348 188.158 29.6348L183.537 31.4126Z" fill="#8B8B8B"/>
    <path d="M196.744 36.3015C196.744 41.1904 198.945 42.9682 201.585 42.9682C204.226 42.9682 205.327 41.857 206.647 40.3015L210.608 42.7459C208.408 46.0793 205.327 47.4126 200.925 47.4126C194.983 47.4126 191.242 42.7459 191.242 35.4126C191.242 28.0793 194.983 23.4126 201.145 23.4126C207.087 23.4126 210.388 28.5237 210.388 34.0793V36.3015H196.744ZM205.547 32.7459C205.547 29.6348 203.786 27.6348 201.145 27.6348C198.505 27.6348 196.744 29.4126 196.744 32.7459H205.547Z" fill="#8B8B8B"/>
    <path d="M226.235 30.0793C225.134 28.9682 223.593 27.6348 222.053 27.6348C219.852 27.6348 218.972 28.5237 218.972 29.857C218.972 33.857 230.416 32.0793 230.416 40.5237C230.416 45.4126 226.894 47.4126 222.053 47.4126C218.312 47.4126 215.451 45.857 213.47 42.7459L217.211 40.0793C218.532 41.857 220.293 43.4126 222.493 43.4126C224.474 43.4126 225.794 42.3015 225.794 40.7459C225.794 36.7459 214.35 38.3015 214.35 30.0793C214.35 25.857 217.871 23.4126 221.833 23.4126C224.914 23.4126 227.995 24.5237 229.976 26.9682L226.235 30.0793Z" fill="#8B8B8B"/>
    <path d="M245.82 30.0793C244.72 28.9682 243.18 27.6348 241.639 27.6348C239.438 27.6348 238.558 28.5237 238.558 29.857C238.558 33.857 250.002 32.0793 250.002 40.5237C250.002 45.4126 246.481 47.4126 241.639 47.4126C237.898 47.4126 235.037 45.857 233.056 42.7459L236.798 40.0793C238.118 41.857 239.879 43.4126 242.079 43.4126C244.06 43.4126 245.38 42.3015 245.38 40.7459C245.38 36.7459 233.937 38.3015 233.937 30.0793C233.937 25.857 237.458 23.4126 241.419 23.4126C244.5 23.4126 247.581 24.5237 249.562 26.9682L245.82 30.0793Z" fill="#8B8B8B"/>
</svg>