<svg xmlns="http://www.w3.org/2000/svg" width="229" height="65" viewBox="0 0 229 65" fill="none">
    <path d="M25.4615 22.1134C27.0029 20.7557 28.4257 19.3979 29.9672 18.1636C28.7815 17.2996 27.7143 16.559 26.6472 15.8184C25.343 16.9292 24.0387 18.1636 22.7344 19.3979C24.0387 19.8917 24.9872 20.8792 25.4615 22.1134Z" fill="#8B8B8B"/>
    <path d="M21.6683 28.4234C24.5217 28.4312 26.8406 26.0886 26.8482 23.1914C26.8556 20.2943 24.5488 17.9394 21.6954 17.9317C18.8421 17.9239 16.5231 20.2665 16.5156 23.1637C16.5082 26.0608 18.815 28.4157 21.6683 28.4234Z" fill="#8B8B8B"/>
    <path d="M26.2383 52.4074C18.9107 56.4764 12.5765 57.4937 9.71989 54.6962C5.74551 50.7543 9.34729 40.4545 18.0413 30.0277C16.6751 29.6463 15.5573 28.629 14.9363 27.3574C2.26792 41.8533 -3.44524 56.4764 2.14372 61.9442C6.73912 66.5219 17.7928 63.4701 29.9645 55.332C28.7225 54.4419 27.4803 53.4246 26.2383 52.4074Z" fill="#8B8B8B"/>
    <path d="M34.5967 17.6639C34.9681 16.269 35.9589 15.1277 37.1972 14.4936C22.5844 2.19316 7.72388 -3.25962 2.1512 2.19316C-2.43079 6.7583 0.54131 17.5371 8.83842 29.4571C9.82911 28.1891 10.8198 27.0477 11.8105 25.7796C7.72388 18.5515 6.60934 12.3379 9.4576 9.42129C13.5442 5.49021 23.9467 9.16766 34.5967 17.6639Z" fill="#8B8B8B"/>
    <path d="M45.1398 21.0645C44.6575 22.3362 43.5726 23.3535 42.3672 23.8623C44.1754 25.7698 45.863 27.5502 47.3095 29.4579C48.1535 28.3133 48.9972 27.1687 49.5999 26.0241C48.2739 24.3709 46.7069 22.7177 45.1398 21.0645Z" fill="#8B8B8B"/>
    <path d="M41.3304 26.3101C44.2139 26.3101 46.4967 24.0071 46.4967 21.0643C46.4967 18.1214 44.2139 15.8184 41.3304 15.8184C38.4468 15.8184 36.1641 18.1214 36.1641 21.0643C36.1641 23.8791 38.4468 26.3101 41.3304 26.3101Z" fill="#8B8B8B"/>
    <path d="M55.4601 9.49288C59.4508 13.4304 55.8342 23.7186 47.1048 34.134C48.4764 34.5151 49.5989 35.5312 50.2224 36.8014C62.8179 22.3216 68.5544 7.58765 62.9425 2.12596C58.3283 -2.31962 47.2294 0.728772 35.1328 8.85781C36.3799 9.74692 37.6271 10.763 38.8741 11.7792C46.2317 7.71465 52.5919 6.69854 55.4601 9.49288Z" fill="#8B8B8B"/>
    <path d="M40.5648 40.998C38.7934 42.7708 36.9042 44.417 35.1328 45.9365C36.3137 46.8229 37.3765 47.5826 38.5574 48.3424C40.2106 46.9494 41.7457 45.4299 43.3989 43.7837C42.1 43.2773 41.1552 42.2642 40.5648 40.998Z" fill="#8B8B8B"/>
    <path d="M44.4617 35.7363C41.6085 35.7283 39.2892 38.0705 39.2813 40.9677C39.2735 43.8649 41.5802 46.2201 44.4334 46.2281C47.2867 46.2361 49.606 43.894 49.6139 40.9968C49.6216 38.0995 47.315 35.7443 44.4617 35.7363Z" fill="#8B8B8B"/>
    <path d="M22.7328 40.2968C20.9246 38.3891 19.2369 36.6087 17.7905 34.7012C16.9465 35.8458 16.1027 36.9902 15.5 38.1348C16.9465 39.788 18.3931 41.4414 19.9602 43.0946C20.4425 41.8229 21.4068 40.8054 22.7328 40.2968Z" fill="#8B8B8B"/>
    <path d="M56.2865 34.7012C55.2991 35.9647 54.3117 37.1018 53.3242 38.3655C57.3973 45.5677 58.5082 51.6329 55.546 54.539C51.4728 58.4561 41.105 54.7918 30.4903 46.4522C30.1201 47.8422 29.1327 48.9794 27.8984 49.6112C42.5861 61.8677 57.3973 67.4274 62.9516 61.994C67.5183 57.3189 64.5561 46.4522 56.2865 34.7012Z" fill="#8B8B8B"/>
    <path d="M28.9418 43.125C28.9492 40.2279 26.6424 37.873 23.7892 37.8653C20.9358 37.8577 18.6168 40.2001 18.6094 43.0974C18.602 45.9946 20.9088 48.3495 23.7621 48.357C26.6153 48.3646 28.9344 46.0222 28.9418 43.125Z" fill="#8B8B8B"/>
    <path d="M93.5139 46.2454C97.747 46.2454 100.545 44.7382 103.084 42.3647C103.342 42.1385 103.563 41.7617 103.563 41.3097C103.563 40.556 102.9 39.878 102.164 39.878C101.796 39.878 101.465 40.0662 101.244 40.2923C99.0353 42.3647 96.7899 43.495 93.5875 43.495C87.9189 43.495 83.6122 38.71 83.6122 32.606C83.6122 26.4646 87.882 21.7173 93.5875 21.7173C96.7532 21.7173 98.9984 22.9228 100.986 24.7315C101.207 24.8821 101.538 25.0705 101.943 25.0705C102.716 25.0705 103.416 24.3923 103.416 23.6011C103.416 23.0736 103.121 22.6591 102.827 22.3953C100.434 20.3608 97.7837 18.9668 93.6244 18.9668C86.0416 18.9668 80.5938 25.1458 80.5938 32.606C80.5938 40.2547 86.0785 46.2454 93.5139 46.2454ZM120.127 46.2454C112.287 46.2454 107.023 39.9532 107.023 32.6815V32.606C107.023 25.3343 112.36 18.9668 120.201 18.9668C128.041 18.9668 133.305 25.259 133.305 32.5308V32.606C133.305 39.878 127.967 46.2454 120.127 46.2454ZM120.201 43.495C126.09 43.495 130.287 38.6722 130.287 32.6815V32.606C130.287 26.6153 126.017 21.7173 120.127 21.7173C114.238 21.7173 110.041 26.54 110.041 32.5308V32.606C110.041 38.5968 114.311 43.495 120.201 43.495ZM148.102 46.17C153.219 46.17 156.9 43.2312 156.9 38.71V38.6345C156.9 34.603 154.249 32.4553 148.507 31.1743C142.838 29.931 141.513 28.5368 141.513 26.0501V25.9748C141.513 23.6011 143.648 21.7173 146.998 21.7173C149.391 21.7173 151.489 22.3953 153.66 24.0156C153.918 24.204 154.176 24.2793 154.507 24.2793C155.28 24.2793 155.906 23.6388 155.906 22.8476C155.906 22.2823 155.575 21.868 155.28 21.6418C152.924 19.9088 150.458 19.0421 147.072 19.0421C142.176 19.0421 138.606 22.094 138.606 26.2385V26.3138C138.606 30.6468 141.329 32.606 147.256 33.9248C152.667 35.0928 153.955 36.487 153.955 38.936V39.0113C153.955 41.611 151.673 43.495 148.213 43.495C144.937 43.495 142.507 42.4777 140.078 40.3677C139.894 40.1793 139.562 40.0285 139.194 40.0285C138.421 40.0285 137.796 40.6692 137.796 41.498C137.796 41.9878 138.017 42.4022 138.348 42.6284C141.219 44.9644 144.348 46.17 148.102 46.17ZM162.826 44.5122C162.826 45.3412 163.452 45.9817 164.225 45.9817C165.035 45.9817 165.66 45.3412 165.66 44.5122V24.8445L173.868 37.2028C174.2 37.6925 174.606 37.9563 175.121 37.9563C175.636 37.9563 176.003 37.6925 176.335 37.2028L184.581 24.8068V44.4745C184.581 45.2657 185.242 45.9817 186.052 45.9817C186.825 45.9817 187.489 45.3035 187.489 44.4745V20.7753C187.489 19.9841 186.825 19.3058 186.052 19.3058H185.722C185.133 19.3058 184.655 19.6073 184.36 20.0971L175.158 34.264L165.955 20.0971C165.66 19.645 165.219 19.3058 164.593 19.3058H164.262C163.489 19.3058 162.826 19.9841 162.826 20.7753V44.5122ZM195.034 44.4745C195.034 45.3035 195.697 45.9817 196.47 45.9817C197.28 45.9817 197.942 45.3035 197.942 44.4745V20.7376C197.942 19.9088 197.28 19.2305 196.47 19.2305C195.697 19.2305 195.034 19.9088 195.034 20.7376V44.4745ZM217.267 46.2454C221.5 46.2454 224.297 44.7382 226.838 42.3647C227.096 42.1385 227.316 41.7617 227.316 41.3097C227.316 40.556 226.654 39.878 225.917 39.878C225.55 39.878 225.218 40.0662 224.997 40.2923C222.788 42.3647 220.544 43.495 217.341 43.495C211.672 43.495 207.366 38.71 207.366 32.606V32.5308C207.366 26.4646 211.635 21.7173 217.341 21.7173C220.507 21.7173 222.751 22.9228 224.74 24.7315C224.96 24.8821 225.292 25.0705 225.696 25.0705C226.469 25.0705 227.17 24.3923 227.17 23.6011C227.17 23.0736 226.875 22.6591 226.58 22.3953C224.188 20.3608 221.537 18.9668 217.378 18.9668C209.794 18.9668 204.347 25.1458 204.347 32.606V32.6815C204.347 40.2547 209.831 46.2454 217.267 46.2454Z" fill="#8B8B8B" stroke="#8B8B8B" stroke-width="0.615068"/>
</svg>