<svg xmlns="http://www.w3.org/2000/svg" width="80" height="80" viewBox="0 0 80 80" fill="none">
    <path d="M37.3793 6.87313C33.9261 7.81063 31.5511 10.3888 31.0668 13.7481C30.4886 17.7013 33.0199 22.5294 36.5668 24.2638C39.6761 25.7794 42.8324 25.1544 45.4886 22.5138C46.473 21.5138 46.8168 21.0294 47.473 19.67C48.848 16.8888 49.0824 14.4669 48.223 12.1075C47.3324 9.67001 45.6449 8.04501 42.9886 7.06063C41.5199 6.52938 38.973 6.43563 37.3793 6.87313ZM40.9418 9.23251C43.0824 9.56063 44.8011 10.7638 45.598 12.4825C46.3636 14.1231 46.2386 16.6231 45.2855 18.5138C44.1605 20.7325 41.7699 22.4669 39.8168 22.4981C37.4418 22.5138 34.8949 20.2169 33.973 17.2325C32.6136 12.8888 35.0511 9.42001 39.6918 9.07626C39.8168 9.07626 40.3793 9.13876 40.9418 9.23251Z" fill="#E55E2C"/>
    <path d="M36.1719 25.4062C33.75 25.6094 31.2188 25.9688 30.4688 26.2188C27.4688 27.25 25.3125 29.125 24.0469 31.7969C23.0938 33.7812 22.9688 34.3906 22.4219 40.1562C22.2812 41.5781 21.9531 44.4531 21.7031 46.5625C21.4531 48.6719 21.25 50.5156 21.25 50.6719C21.25 50.8281 21.4219 51.125 21.6406 51.3281C22.1562 51.8594 22.9375 51.8594 23.4375 51.3281C23.75 50.9844 23.8438 50.5469 24.3125 46.6094C24.5938 44.2188 24.9375 41 25.0781 39.4531C25.3906 35.875 25.6562 34.6094 26.4062 33.0469C27.4219 30.9531 28.9531 29.5312 31.0312 28.7656C33.6719 27.7656 44.0469 27.625 47.7344 28.5312C50.5312 29.2188 52.7188 31.1562 53.6875 33.8281C54.0781 34.9062 54.2188 35.7812 54.7031 40.3906C55.0312 43.6406 55.9062 50.375 56.0312 50.8281C56.1719 51.2812 56.75 51.7188 57.2031 51.7188C57.4375 51.7188 57.8281 51.5469 58.0781 51.3438C58.625 50.875 58.625 51.0625 57.8281 44.8438C57.4844 42.1406 57.125 39.0469 57.0312 37.9688C56.8125 35.4688 56.4062 33.7188 55.6406 32.125C54.5 29.6875 52.7812 27.9062 50.5469 26.8125C48.4219 25.7656 46.3594 25.4688 40.7812 25.3906C38.6719 25.375 36.6094 25.375 36.1719 25.4062Z" fill="#E55E2C"/>
    <path d="M30.0469 36.4064C29.8594 36.4845 29.625 36.7033 29.5312 36.8751C29.375 37.172 28.4531 48.7345 28.4375 50.4376C28.4375 51.5314 29.7031 52.0939 30.5469 51.3595L30.9531 51.0158L31.4375 44.172C31.9531 36.7814 31.9531 36.797 31.1406 36.422C30.7031 36.2189 30.5156 36.2189 30.0469 36.4064Z" fill="#E55E2C"/>
    <path d="M48.1975 36.6412C47.6975 37.1256 47.6975 37.2975 48.2443 44.9537C48.6662 50.7506 48.6975 50.9381 49.0568 51.3287C49.6662 51.985 50.7912 51.7975 51.0881 51.0006C51.2756 50.5006 50.385 37.4225 50.135 36.9381C49.76 36.2037 48.7756 36.0631 48.1975 36.6412Z" fill="#E55E2C"/>
    <path d="M39.3255 45.6406C39.1693 45.7344 38.138 47.625 37.0286 49.8438C35.7318 52.4531 34.9036 53.9063 34.7318 53.9531C34.5755 54 32.5911 54.2969 30.3099 54.625C26.388 55.1875 26.1536 55.25 25.7474 55.6406C24.888 56.5 24.9661 56.625 28.6224 60.1719L31.9349 63.4063L31.2005 67.6875C30.7943 70.0469 30.4661 72.125 30.4661 72.3281C30.4661 72.7969 31.138 73.4375 31.6536 73.4375C31.9036 73.4375 33.763 72.5625 35.9505 71.4063C38.0755 70.2813 39.9037 69.375 39.9974 69.375C40.1068 69.375 41.9193 70.2813 44.0443 71.4063C46.2474 72.5625 48.0912 73.4375 48.3412 73.4375C48.8568 73.4375 49.5287 72.8125 49.5287 72.3281C49.5287 72.125 49.2005 70.0469 48.7943 67.6875L48.0599 63.3906L51.2943 60.25C53.4662 58.1406 54.5599 56.9688 54.6224 56.6719C54.7318 56.2031 54.4193 55.5781 53.9349 55.3281C53.7943 55.25 51.8724 54.9375 49.6849 54.625C47.4974 54.3125 45.5443 54.0156 45.3412 53.9688C45.0599 53.9219 44.5912 53.0938 42.9662 49.8438C41.7943 47.5 40.8099 45.7344 40.638 45.625C40.2474 45.4219 39.6849 45.4375 39.3255 45.6406ZM41.5912 52.8906C42.513 54.7188 43.263 56.0156 43.4662 56.1563C43.6693 56.2813 45.1224 56.5625 46.7162 56.7969C48.3099 57.0156 49.8099 57.2344 50.0599 57.2813C50.4974 57.375 50.4505 57.4375 47.9662 59.9219C44.9818 62.9063 45.2005 62.1406 45.9974 66.6875C46.3412 68.6563 46.4662 69.6875 46.3412 69.6563C46.2474 69.625 44.8568 68.9219 43.263 68.0781C41.6693 67.25 40.2005 66.5625 39.9974 66.5625C39.8099 66.5625 38.3412 67.25 36.7318 68.0781C35.138 68.9219 33.7318 69.625 33.6224 69.6563C33.4818 69.7031 33.4505 69.5938 33.513 69.3438C33.7474 68.3438 34.5286 63.4375 34.5286 62.9688C34.5286 62.4688 34.2943 62.2031 32.013 59.9063C29.5443 57.4375 29.4974 57.375 29.9349 57.2813C30.1849 57.2344 31.6849 57.0156 33.2786 56.7813C34.8724 56.5625 36.3255 56.2813 36.5286 56.1563C36.7474 56.0156 37.4818 54.7344 38.4037 52.8906C39.2318 51.2188 39.9505 49.8438 39.9974 49.8438C40.0443 49.8438 40.763 51.2188 41.5912 52.8906Z" fill="#E55E2C"/>
    <path d="M14.3281 51.9219C13.9531 52.0469 13.6562 52.5469 12.3594 55.1406L10.8125 58.2188L7.57812 58.6563C3.85937 59.1719 3.53125 59.3281 3.53125 60.4063C3.53125 60.9688 3.65625 61.125 5.96875 63.3594L8.40625 65.7031L7.875 68.8281C7.59375 70.5469 7.34375 72.1094 7.34375 72.3125C7.34375 72.7969 8.01562 73.4375 8.53125 73.4375C8.76562 73.4375 10.2344 72.7656 11.7969 71.9531C13.375 71.1406 14.7344 70.4688 14.8437 70.4688C14.9531 70.4688 16.2344 71.1094 17.7187 71.875C20.6094 73.4219 21.0781 73.5781 21.625 73.2813C22.3906 72.875 22.4062 72.5625 21.7812 69L21.2187 65.7031L23.6562 63.3281C25.8437 61.2031 26.0937 60.9063 26.0937 60.4375C26.0937 59.75 25.7344 59.2656 25.1094 59.125C24.8437 59.0625 23.3125 58.8438 21.7187 58.6094L18.8281 58.2031L17.3437 55.2969C16.5312 53.6875 15.7656 52.2813 15.6562 52.1406C15.3906 51.8281 14.8594 51.7344 14.3281 51.9219ZM15.8437 58.0781C16.3906 59.1875 16.9687 60.1875 17.125 60.3438C17.3281 60.5156 18.1719 60.7031 19.6719 60.9219C20.9219 61.1094 21.9531 61.2813 21.9844 61.2969C22.0156 61.3281 21.25 62.1094 20.3125 63.0313C18.3281 64.9531 18.4219 64.6406 18.9219 67.6094C19.1094 68.6719 19.2187 69.5781 19.1719 69.625C19.1406 69.6719 18.2187 69.25 17.1562 68.6875C16.0781 68.1094 15.0312 67.6563 14.8281 67.6563C14.625 67.6563 13.5781 68.1094 12.5 68.6719C11.4219 69.2344 10.5 69.6875 10.4219 69.6875C10.3594 69.6875 10.3437 69.5313 10.3906 69.3281C10.5625 68.5469 11.0937 65.3906 11.0937 65.1094C11.0937 64.9219 10.3906 64.0781 9.34375 63.0156C8.375 62.0469 7.64062 61.25 7.70312 61.25C8.34375 61.25 12.1719 60.5625 12.4219 60.4063C12.5937 60.2969 13.1875 59.2656 13.75 58.1406C14.2969 57.0156 14.7812 56.0938 14.7969 56.0938C14.8281 56.0938 15.2969 56.9844 15.8437 58.0781Z" fill="#E55E2C"/>
    <path d="M64.8906 51.8438C64.4062 51.9219 64.2812 52.0938 62.6562 55.2969L61.1719 58.2031L57.8125 58.6875C54.125 59.25 53.9062 59.3281 53.9062 60.3906C53.9062 60.8281 54.1875 61.1719 56.3438 63.3125L58.7812 65.7344L58.2188 69.0312C57.6094 72.5 57.625 72.7344 58.2656 73.2344C58.7656 73.625 59.4062 73.4219 62.1562 71.9531C63.7031 71.1406 65.0156 70.4688 65.0938 70.4375C65.1719 70.4062 66.5469 71.0781 68.1406 71.9062C69.7344 72.75 71.2344 73.4375 71.4688 73.4375C72.0312 73.4375 72.6562 72.7969 72.6562 72.2344C72.6562 72 72.4062 70.4219 72.125 68.75L71.5938 65.7031L73.9844 63.4062C75.3125 62.1094 76.4062 60.9375 76.4688 60.7188C76.5938 60.2031 76.3438 59.6094 75.9062 59.3281C75.7031 59.1875 74.125 58.8906 72.3594 58.6406L69.1875 58.2031L67.6406 55.1406C66.3281 52.5156 66.0469 52.0469 65.6719 51.9219C65.4375 51.8438 65.0781 51.8125 64.8906 51.8438ZM67.6406 60.4688C67.875 60.5938 71.7969 61.25 72.2969 61.25C72.3594 61.25 71.625 62.0469 70.6562 63.0156C69.6562 64.0312 68.9062 64.9219 68.9062 65.0938C68.9062 65.25 69.0781 66.3438 69.2812 67.5C69.4844 68.6562 69.6406 69.6406 69.6094 69.6719C69.5781 69.7031 68.6562 69.2656 67.5781 68.6875C66.5 68.125 65.4375 67.6562 65.2031 67.6562C64.9844 67.6562 63.9219 68.1094 62.8438 68.6875C61.7812 69.25 60.8594 69.6719 60.8281 69.625C60.7812 69.5781 60.8906 68.6719 61.0781 67.6094C61.5781 64.6406 61.6719 64.9375 59.6875 63.0156C58.7344 62.1094 57.9844 61.3281 58.0156 61.3125C58.0469 61.2812 59.0781 61.1094 60.3281 60.9219C61.8281 60.7031 62.6719 60.5156 62.875 60.3438C63.0312 60.1875 63.625 59.1719 64.1719 58.0469L65.2031 56.0156L66.2656 58.1562C66.8594 59.3438 67.4688 60.375 67.6406 60.4688Z" fill="#E55E2C"/>
</svg>