<svg xmlns="http://www.w3.org/2000/svg" width="67" height="69" viewBox="0 0 67 69" fill="none">
    <path fill-rule="evenodd" clip-rule="evenodd" d="M64.7465 25.5096C62.6162 12.3982 51.4796 2.6441 38.2019 2.26013C37.5706 2.23538 36.9553 2.46267 36.4917 2.89192C36.0282 3.32116 35.7543 3.91712 35.7305 4.54846V4.54846V4.76204L37.2255 27.1266C37.3236 28.6322 38.6179 29.7766 40.1241 29.6896L62.5497 28.1945C63.1816 28.1478 63.7688 27.851 64.1811 27.3699C64.5935 26.8889 64.797 26.2632 64.7465 25.6316V25.5096Z" stroke="#E55E2C" stroke-width="4" stroke-linecap="round" stroke-linejoin="round"/>
    <path d="M22.6714 15.5627C24.0979 15.2328 25.5577 15.9627 26.1496 17.3019C26.3047 17.6168 26.3979 17.9586 26.4242 18.3087C26.7293 22.6413 27.3701 32.1302 27.7362 37.2561C27.7987 38.1794 28.2266 39.0398 28.9252 39.6468C29.6238 40.2538 30.5355 40.5573 31.4586 40.4903V40.4903L50.2839 39.3308C51.1243 39.2803 51.9483 39.5793 52.5607 40.1571C53.1731 40.7349 53.5196 41.54 53.5181 42.3819V42.3819C52.7552 53.7499 44.5877 63.2533 33.4637 65.7167C22.3397 68.18 10.9236 63.0133 5.43262 53.0303C3.79345 50.1571 2.75541 46.9806 2.38152 43.6939C2.22168 42.6852 2.16037 41.6634 2.19845 40.6428C2.23083 28.5028 10.7568 18.0426 22.6409 15.5627" stroke="#E55E2C" stroke-width="4" stroke-linecap="round" stroke-linejoin="round"/>
</svg>