<svg xmlns="http://www.w3.org/2000/svg" width="89" height="66" viewBox="0 0 89 66" fill="none">
    <circle cx="14.1697" cy="14.1697" r="14.1697" transform="matrix(-1 0 0 1 59.6953 2)" stroke="#E55E2C" stroke-width="4"/>
    <path d="M20.7422 49.1086C20.7422 47.4181 21.8049 45.9102 23.3968 45.3416L34.4401 41.3976C41.6175 38.8342 49.4609 38.8342 56.6383 41.3976L67.6816 45.3416C69.2736 45.9102 70.3363 47.4181 70.3363 49.1086V61.6958C70.3363 62.9129 69.2583 63.8479 68.0534 63.6757L49.3576 61.0049C46.8249 60.6431 44.2536 60.6431 41.7209 61.0049L23.025 63.6757C21.8202 63.8479 20.7422 62.9129 20.7422 61.6958V49.1086Z" stroke="#E55E2C" stroke-width="4"/>
    <path d="M66.7729 30.7394C72.9217 30.7394 77.9062 25.7548 77.9062 19.606C77.9062 13.4572 72.9217 8.47266 66.7729 8.47266" stroke="#E55E2C" stroke-width="4" stroke-linecap="round"/>
    <path d="M78.978 56.1461L80.0688 56.3019C83.3407 56.7693 86.2679 54.2305 86.2679 50.9255V47.264C86.2679 44.8693 84.7625 42.7332 82.5074 41.9277C80.2578 41.1243 77.9621 40.4987 75.6406 40.0508" stroke="#E55E2C" stroke-width="4" stroke-linecap="round"/>
    <path d="M22.4927 30.7394C16.344 30.7394 11.3594 25.7548 11.3594 19.606C11.3594 13.4572 16.344 8.47266 22.4927 8.47266" stroke="#E55E2C" stroke-width="4" stroke-linecap="round"/>
    <path d="M10.2876 56.1461L9.19678 56.3019C5.92495 56.7693 2.9977 54.2305 2.9977 50.9255V47.264C2.9977 44.8693 4.50308 42.7332 6.75825 41.9277C9.00779 41.1243 11.3035 40.4987 13.625 40.0508" stroke="#E55E2C" stroke-width="4" stroke-linecap="round"/>
</svg>