<svg xmlns="http://www.w3.org/2000/svg" width="25" height="25" viewBox="0 0 25 25" fill="none">
    <path d="M21.5223 8.45333L21.405 9.19409L21.405 9.19409L21.5223 8.45333ZM16.3269 3.25799L15.5862 3.37532L15.5862 3.37532L16.3269 3.25799ZM3.82634 22.3366L4.26718 21.7299L3.82634 22.3366ZM2.44364 20.9539L3.05041 20.5131L2.44364 20.9539ZM22.5564 20.9539L21.9496 20.5131L22.5564 20.9539ZM21.1737 22.3366L20.7328 21.7299L21.1737 22.3366ZM21.1737 2.22392L21.6145 1.61715L21.1737 2.22392ZM22.5564 3.60662L23.1631 3.16578L22.5564 3.60662ZM3.82634 2.22392L4.26718 2.83068L3.82634 2.22392ZM2.44364 3.60662L3.05041 4.04745L2.44364 3.60662ZM16.25 1.06643L16.2757 0.316874L16.25 1.06643ZM23.7138 8.53027L24.4634 8.50459L23.7138 8.53027ZM7.5 16.5303C7.08579 16.5303 6.75 16.8661 6.75 17.2803C6.75 17.6945 7.08579 18.0303 7.5 18.0303V16.5303ZM11.25 18.0303C11.6642 18.0303 12 17.6945 12 17.2803C12 16.8661 11.6642 16.5303 11.25 16.5303V18.0303ZM7.5 11.5303C7.08579 11.5303 6.75 11.8661 6.75 12.2803C6.75 12.6945 7.08579 13.0303 7.5 13.0303V11.5303ZM17.5 13.0303C17.9142 13.0303 18.25 12.6945 18.25 12.2803C18.25 11.8661 17.9142 11.5303 17.5 11.5303V13.0303ZM7.5 6.53027C7.08579 6.53027 6.75 6.86606 6.75 7.28027C6.75 7.69449 7.08579 8.03027 7.5 8.03027V6.53027ZM11.25 8.03027C11.6642 8.03027 12 7.69449 12 7.28027C12 6.86606 11.6642 6.53027 11.25 6.53027V8.03027ZM21.6396 7.71256C19.2862 7.33982 17.4405 5.49407 17.0677 3.14066L15.5862 3.37532C16.0606 6.37056 18.4097 8.71969 21.405 9.19409L21.6396 7.71256ZM12.5 22.7803C10.1397 22.7803 8.42974 22.7792 7.10236 22.6354C5.78902 22.4931 4.93948 22.2183 4.26718 21.7299L3.3855 22.9434C4.35612 23.6486 5.49982 23.9706 6.94079 24.1267C8.36772 24.2813 10.1731 24.2803 12.5 24.2803V22.7803ZM0.5 12.2803C0.5 14.6071 0.498971 16.4126 0.653569 17.8395C0.809688 19.2805 1.13169 20.4242 1.83688 21.3948L3.05041 20.5131C2.56196 19.8408 2.28713 18.9913 2.14484 17.6779C2.00103 16.3505 2 14.6406 2 12.2803H0.5ZM4.26718 21.7299C3.80026 21.3906 3.38964 20.98 3.05041 20.5131L1.83688 21.3948C2.26864 21.989 2.79124 22.5116 3.3855 22.9434L4.26718 21.7299ZM23 12.2803C23 14.6406 22.999 16.3505 22.8552 17.6779C22.7129 18.9913 22.438 19.8408 21.9496 20.5131L23.1631 21.3948C23.8683 20.4242 24.1903 19.2805 24.3464 17.8395C24.501 16.4126 24.5 14.6071 24.5 12.2803H23ZM12.5 24.2803C14.8269 24.2803 16.6323 24.2813 18.0592 24.1267C19.5002 23.9706 20.6439 23.6486 21.6145 22.9434L20.7328 21.7299C20.0605 22.2183 19.211 22.4931 17.8976 22.6354C16.5703 22.7792 14.8603 22.7803 12.5 22.7803V24.2803ZM21.9496 20.5131C21.6104 20.98 21.1997 21.3906 20.7328 21.7299L21.6145 22.9434C22.2088 22.5116 22.7314 21.989 23.1631 21.3948L21.9496 20.5131ZM20.7328 2.83068C21.1997 3.16992 21.6104 3.58053 21.9496 4.04745L23.1631 3.16578C22.7314 2.57151 22.2088 2.04891 21.6145 1.61715L20.7328 2.83068ZM12.5 0.280273C10.1731 0.280273 8.36772 0.279244 6.94079 0.433842C5.49982 0.589962 4.35612 0.911962 3.3855 1.61715L4.26718 2.83068C4.93948 2.34223 5.78902 2.06741 7.10236 1.92512C8.42974 1.7813 10.1397 1.78027 12.5 1.78027V0.280273ZM2 12.2803C2 9.91998 2.00103 8.21001 2.14484 6.88263C2.28713 5.56929 2.56196 4.71975 3.05041 4.04745L1.83688 3.16578C1.13169 4.13639 0.809688 5.2801 0.653569 6.72106C0.498971 8.148 0.5 9.9534 0.5 12.2803H2ZM3.3855 1.61715C2.79124 2.04891 2.26864 2.57151 1.83688 3.16578L3.05041 4.04745C3.38964 3.58053 3.80026 3.16992 4.26718 2.83068L3.3855 1.61715ZM12.5 1.78027C13.9653 1.78027 15.1845 1.78037 16.2243 1.81599L16.2757 0.316874C15.2047 0.280179 13.957 0.280273 12.5 0.280273V1.78027ZM16.2243 1.81599C18.5453 1.89551 19.8011 2.15376 20.7328 2.83068L21.6145 1.61715C20.2847 0.65099 18.6152 0.397028 16.2757 0.316874L16.2243 1.81599ZM15.5 1.06644C15.5 2.17615 15.4985 2.82181 15.5862 3.37532L17.0677 3.14066C17.0031 2.73265 17 2.23112 17 1.06643L15.5 1.06644ZM24.5 12.2803C24.5 10.8233 24.5001 9.5756 24.4634 8.50459L22.9643 8.55595C22.9999 9.59581 23 10.815 23 12.2803H24.5ZM24.4634 8.50459C24.3832 6.1651 24.1293 4.49559 23.1631 3.16578L21.9496 4.04745C22.6265 4.97915 22.8848 6.23498 22.9643 8.55595L24.4634 8.50459ZM23.7138 7.78027C22.5492 7.78026 22.0476 7.77718 21.6396 7.71256L21.405 9.19409C21.9585 9.28176 22.6041 9.28026 23.7138 9.28027L23.7138 7.78027ZM7.5 18.0303H11.25V16.5303H7.5V18.0303ZM7.5 13.0303H17.5V11.5303H7.5V13.0303ZM7.5 8.03027H11.25V6.53027H7.5V8.03027Z" fill="#E55E2C"/>
</svg>