<svg xmlns="http://www.w3.org/2000/svg" width="60" height="61" viewBox="0 0 60 61" fill="none">
    <path d="M12.6527 52.893L13.6813 51.4772L12.6527 52.893ZM9.88729 50.1276L11.3031 49.099L9.88729 50.1276ZM50.1127 50.1276L48.6969 49.099L50.1127 50.1276ZM47.3473 52.893L46.3187 51.4772L47.3473 52.893ZM47.3473 7.66756L46.3187 9.08334L47.3473 7.66756ZM50.1127 10.433L48.6969 11.4616L50.1127 10.433ZM12.6527 7.66756L13.6813 9.08334L12.6527 7.66756ZM9.88729 10.433L11.3031 11.4616L9.88729 10.433ZM32.8654 16.7685L33.1391 18.497L32.8654 16.7685ZM28.9545 16.7685L28.6807 18.497L28.9545 16.7685ZM15.1806 6.37074L14.6097 4.71645L15.1806 6.37074ZM20 43.5303C19.0335 43.5303 18.25 44.3138 18.25 45.2803C18.25 46.2468 19.0335 47.0303 20 47.0303V43.5303ZM40 47.0303C40.9665 47.0303 41.75 46.2468 41.75 45.2803C41.75 44.3138 40.9665 43.5303 40 43.5303V47.0303ZM20 33.5303C19.0335 33.5303 18.25 34.3138 18.25 35.2803C18.25 36.2468 19.0335 37.0303 20 37.0303V33.5303ZM40 37.0303C40.9665 37.0303 41.75 36.2468 41.75 35.2803C41.75 34.3138 40.9665 33.5303 40 33.5303V37.0303ZM20 23.5303C19.0335 23.5303 18.25 24.3138 18.25 25.2803C18.25 26.2468 19.0335 27.0303 20 27.0303V23.5303ZM40 27.0303C40.9665 27.0303 41.75 26.2468 41.75 25.2803C41.75 24.3138 40.9665 23.5303 40 23.5303V27.0303ZM50.75 27.7803V32.7803H54.25V27.7803H50.75ZM9.25 32.7803V27.7803H5.75V32.7803H9.25ZM30 53.5303C25.2739 53.5303 21.8698 53.5279 19.2316 53.242C16.6262 52.9598 14.9762 52.418 13.6813 51.4772L11.6241 54.3088C13.615 55.7553 15.9514 56.4071 18.8547 56.7217C21.7251 57.0327 25.3518 57.0303 30 57.0303V53.5303ZM5.75 32.7803C5.75 37.4285 5.7476 41.0552 6.05859 43.9256C6.37314 46.8288 7.025 49.1653 8.47151 51.1562L11.3031 49.099C10.3623 47.8041 9.82051 46.154 9.53823 43.5486C9.2524 40.9105 9.25 37.5064 9.25 32.7803H5.75ZM13.6813 51.4772C12.7687 50.8142 11.9661 50.0116 11.3031 49.099L8.47151 51.1562C9.35044 52.366 10.4143 53.4298 11.6241 54.3088L13.6813 51.4772ZM50.75 32.7803C50.75 37.5064 50.7476 40.9105 50.4618 43.5486C50.1795 46.154 49.6377 47.8041 48.6969 49.099L51.5285 51.1562C52.975 49.1653 53.6269 46.8288 53.9414 43.9256C54.2524 41.0552 54.25 37.4285 54.25 32.7803H50.75ZM30 57.0303C34.6482 57.0303 38.2749 57.0327 41.1453 56.7217C44.0485 56.4071 46.385 55.7553 48.3759 54.3088L46.3187 51.4772C45.0238 52.418 43.3738 52.9598 40.7684 53.242C38.1302 53.5279 34.7261 53.5303 30 53.5303V57.0303ZM48.6969 49.099C48.0339 50.0116 47.2313 50.8142 46.3187 51.4772L48.3759 54.3088C49.5857 53.4298 50.6496 52.366 51.5285 51.1562L48.6969 49.099ZM54.25 27.7803C54.25 23.1321 54.2524 19.5054 53.9414 16.6349C53.6269 13.7317 52.975 11.3953 51.5285 9.40433L48.6969 11.4616C49.6377 12.7565 50.1795 14.4065 50.4618 17.0119C50.7476 19.6501 50.75 23.0541 50.75 27.7803H54.25ZM46.3187 9.08334C47.2313 9.7464 48.0339 10.549 48.6969 11.4616L51.5285 9.40433C50.6496 8.19458 49.5857 7.13071 48.3759 6.25178L46.3187 9.08334ZM9.25 27.7803C9.25 23.0541 9.2524 19.6501 9.53823 17.0119C9.82051 14.4065 10.3623 12.7565 11.3031 11.4616L8.47151 9.40433C7.025 11.3953 6.37314 13.7317 6.05859 16.6349C5.7476 19.5054 5.75 23.1321 5.75 27.7803H9.25ZM11.6241 6.25178C10.4143 7.13072 9.35044 8.19458 8.47151 9.40433L11.3031 11.4616C11.9661 10.549 12.7687 9.7464 13.6813 9.08334L11.6241 6.25178ZM32.5916 15.0401C31.4774 15.2166 30.3424 15.2166 29.2282 15.0401L28.6807 18.497C30.1576 18.7309 31.6622 18.7309 33.1391 18.497L32.5916 15.0401ZM44.8642 5.67078C41.7652 8.76753 39.5002 10.9981 37.5414 12.5407C35.6087 14.0628 34.1143 14.7989 32.5916 15.0401L33.1391 18.497C35.4803 18.1262 37.5263 17.0076 39.7069 15.2904C41.8613 13.5937 44.2822 11.2003 47.3382 8.14654L44.8642 5.67078ZM30 7.03027C34.1524 7.03027 37.291 7.03151 39.797 7.22844C42.2972 7.42492 43.9961 7.80702 45.3133 8.47123L46.8892 5.34608C44.9771 4.38191 42.7513 3.94981 40.0712 3.7392C37.3969 3.52904 34.0995 3.53027 30 3.53027V7.03027ZM45.3133 8.47123C45.67 8.65113 46.0029 8.85388 46.3187 9.08334L48.3759 6.25178C47.905 5.9096 47.4108 5.60914 46.8892 5.34608L45.3133 8.47123ZM13.9431 7.60821C17.1714 10.8363 19.6984 13.359 21.9241 15.1405C24.1757 16.9425 26.2722 18.1155 28.6807 18.497L29.2282 15.0401C27.6618 14.792 26.1257 14.0203 24.1112 12.4079C22.0709 10.7749 19.6983 8.41351 16.418 5.13328L13.9431 7.60821ZM30 3.53027C26.408 3.53027 23.437 3.52965 20.9692 3.66938C18.503 3.80902 16.4155 4.0934 14.6097 4.71645L15.7514 8.02504C17.106 7.55762 18.8184 7.29677 21.167 7.16378C23.5139 7.0309 26.3725 7.03027 30 7.03027V3.53027ZM14.6097 4.71645C13.5188 5.09288 12.5323 5.59192 11.6241 6.25178L13.6813 9.08334C14.2836 8.64572 14.9558 8.29954 15.7514 8.02504L14.6097 4.71645ZM20 47.0303H40V43.5303H20V47.0303ZM20 37.0303H40V33.5303H20V37.0303ZM20 27.0303H40V23.5303H20V27.0303Z" fill="#504845"/>
</svg>