<svg xmlns="http://www.w3.org/2000/svg" width="80" height="81" viewBox="0 0 80 81" fill="none">
    <path d="M60.2498 5.83008L74.1598 20.3301V75.4701H22.1973V75.6501H74.3373V20.5126L60.2498 5.83008Z" fill="#909090"/>
    <path d="M60.077 5.65039H22.0195V75.4704H74.1595V20.3329L60.0745 5.65039" fill="#F4F4F4"/>
    <path d="M21.6371 9.40039H5.66211V26.4679H55.9121V9.40039H21.6371Z" fill="#7A7B7C"/>
    <path d="M56.1808 26.1796H5.98828V9.09961H56.1808V26.1796Z" fill="#DD2025"/>
    <path d="M22.6308 11.9851H19.3633V23.9851H21.9333V19.9376L22.5008 19.9701C23.0522 19.9606 23.5985 19.8619 24.1183 19.6776C24.574 19.5209 24.9933 19.2734 25.3508 18.9501C25.7145 18.6422 26.0013 18.2535 26.1883 17.8151C26.439 17.0864 26.5286 16.3119 26.4508 15.5451C26.4352 14.9974 26.3391 14.4549 26.1658 13.9351C26.008 13.5599 25.7738 13.2216 25.4781 12.9419C25.1824 12.6621 24.8317 12.4469 24.4483 12.3101C24.1168 12.1901 23.7743 12.103 23.4258 12.0501C23.1618 12.0094 22.8953 11.9877 22.6283 11.9851M22.1558 17.7201H21.9333V14.0201H22.4158C22.6287 14.0048 22.8424 14.0375 23.041 14.1158C23.2396 14.1941 23.4181 14.3161 23.5633 14.4726C23.8641 14.8752 24.0248 15.3651 24.0208 15.8676C24.0208 16.4826 24.0208 17.0401 23.4658 17.4326C23.0659 17.6525 22.6108 17.7515 22.1558 17.7176M31.3333 11.9526C31.0558 11.9526 30.7858 11.9726 30.5958 11.9801L30.0008 11.9951H28.0508V23.9951H30.3458C31.2228 24.0192 32.0961 23.8705 32.9158 23.5576C33.5756 23.2959 34.1598 22.8741 34.6158 22.3301C35.0592 21.7813 35.3774 21.1422 35.5483 20.4576C35.7447 19.6823 35.8405 18.8849 35.8333 18.0851C35.8818 17.1405 35.8087 16.1936 35.6158 15.2676C35.4327 14.586 35.0899 13.9579 34.6158 13.4351C34.2438 13.013 33.7884 12.6725 33.2783 12.4351C32.8402 12.2324 32.3794 12.083 31.9058 11.9901C31.7174 11.959 31.5267 11.9448 31.3358 11.9476M30.8808 21.7901H30.6308V14.1301H30.6633C31.1787 14.0708 31.7002 14.1638 32.1633 14.3976C32.5024 14.6684 32.7788 15.0096 32.9733 15.3976C33.1832 15.806 33.3042 16.2541 33.3283 16.7126C33.3508 17.2626 33.3283 17.7126 33.3283 18.0851C33.3385 18.5142 33.3109 18.9434 33.2458 19.3676C33.1687 19.8032 33.0263 20.2246 32.8233 20.6176C32.5935 20.983 32.2831 21.2909 31.9158 21.5176C31.6073 21.7171 31.2421 21.8102 30.8758 21.7826M43.5758 11.9951H37.5008V23.9951H40.0708V19.2351H43.3208V17.0051H40.0708V14.2251H43.5708V11.9951" fill="#464648"/>
    <path d="M54.4517 51.2882C54.4517 51.2882 62.4217 49.8432 62.4217 52.5657C62.4217 55.2882 57.4842 54.1807 54.4517 51.2882ZM48.5592 51.4957C47.293 51.7755 46.0589 52.1851 44.8767 52.7182L45.8767 50.4682C46.8767 48.2182 47.9142 45.1507 47.9142 45.1507C49.1075 47.159 50.4959 49.0448 52.0592 50.7807C50.8803 50.9565 49.7118 51.1968 48.5592 51.5007V51.4957ZM45.4042 35.2457C45.4042 32.8732 46.1717 32.2257 46.7692 32.2257C47.3667 32.2257 48.0392 32.5132 48.0617 34.5732C47.8671 36.6446 47.4333 38.6865 46.7692 40.6582C45.8595 39.0027 45.3887 37.142 45.4017 35.2532L45.4042 35.2457ZM33.7817 61.5357C31.3367 60.0732 38.9092 55.5707 40.2817 55.4257C40.2742 55.4282 36.3417 63.0657 33.7817 61.5357ZM64.7492 52.8882C64.7242 52.6382 64.4992 49.8707 59.5742 49.9882C57.5214 49.9551 55.4696 50.0998 53.4417 50.4207C51.4774 48.4417 49.7858 46.2095 48.4117 43.7832C49.2774 41.2817 49.8013 38.6748 49.9692 36.0332C49.8967 33.0332 49.1792 31.3132 46.8792 31.3382C44.5792 31.3632 44.2442 33.3757 44.5467 36.3707C44.843 38.3833 45.402 40.3484 46.2092 42.2157C46.2092 42.2157 45.1467 45.5232 43.7417 48.8132C42.3367 52.1032 41.3767 53.8282 41.3767 53.8282C38.9335 54.6235 36.6336 55.8051 34.5642 57.3282C32.5042 59.2457 31.6667 60.7182 32.7517 62.1907C33.6867 63.4607 36.9592 63.7482 39.8842 59.9157C41.4384 57.9362 42.8582 55.8549 44.1342 53.6857C44.1342 53.6857 48.5942 52.4632 49.9817 52.1282C51.3692 51.7932 53.0467 51.5282 53.0467 51.5282C53.0467 51.5282 57.1192 55.6257 61.0467 55.4807C64.9742 55.3357 64.7842 53.1332 64.7592 52.8932" fill="#DD2025"/>
    <path d="M59.8848 5.8418V20.5243H73.9673L59.8848 5.8418Z" fill="#909090"/>
    <path d="M60.0781 5.65039V20.3329H74.1606L60.0781 5.65039Z" fill="#F4F4F4"/>
    <path d="M22.4374 11.7937H19.1699V23.7937H21.7499V19.7487L22.3199 19.7812C22.8713 19.7717 23.4176 19.6729 23.9374 19.4887C24.3931 19.3319 24.8124 19.0844 25.1699 18.7612C25.5309 18.4524 25.8151 18.0638 25.9999 17.6262C26.2507 16.8975 26.3402 16.123 26.2624 15.3562C26.2468 14.8085 26.1508 14.266 25.9774 13.7462C25.8196 13.371 25.5854 13.0327 25.2897 12.7529C24.994 12.4732 24.6433 12.258 24.2599 12.1212C23.9269 12 23.5827 11.9121 23.2324 11.8587C22.9685 11.818 22.702 11.7963 22.4349 11.7937M21.9624 17.5287H21.7399V13.8287H22.2249C22.4379 13.8134 22.6516 13.846 22.8502 13.9244C23.0488 14.0027 23.2273 14.1246 23.3724 14.2812C23.6732 14.6838 23.8339 15.1737 23.8299 15.6762C23.8299 16.2912 23.8299 16.8487 23.2749 17.2412C22.8751 17.4611 22.42 17.5601 21.9649 17.5262M31.1399 11.7612C30.8624 11.7612 30.5924 11.7812 30.4024 11.7887L29.8149 11.8037H27.8649V23.8037H30.1599C31.037 23.8278 31.9102 23.6791 32.7299 23.3662C33.3897 23.1045 33.9739 22.6827 34.4299 22.1387C34.8733 21.5899 35.1916 20.9508 35.3624 20.2662C35.5588 19.4909 35.6546 18.6935 35.6474 17.8937C35.6959 16.9491 35.6228 16.0022 35.4299 15.0762C35.2469 14.3946 34.9041 13.7664 34.4299 13.2437C34.0579 12.8216 33.6025 12.4811 33.0924 12.2437C32.6544 12.041 32.1936 11.8916 31.7199 11.7987C31.5316 11.7676 31.3408 11.7534 31.1499 11.7562M30.6949 21.5987H30.4449V13.9387H30.4774C30.9928 13.8794 31.5143 13.9724 31.9774 14.2062C32.3166 14.477 32.5929 14.8182 32.7874 15.2062C32.9973 15.6146 33.1183 16.0627 33.1424 16.5212C33.1649 17.0712 33.1424 17.5212 33.1424 17.8937C33.1526 18.3228 33.125 18.752 33.0599 19.1762C32.9829 19.6118 32.8404 20.0332 32.6374 20.4262C32.4076 20.7916 32.0972 21.0995 31.7299 21.3262C31.4215 21.5257 31.0562 21.6188 30.6899 21.5912M43.3824 11.8037H37.3074V23.8037H39.8774V19.0437H43.1274V16.8137H39.8774V14.0337H43.3774V11.8037" fill="white"/>
</svg>